<?xml version="1.0" encoding="UTF-8"?>
<svg xmlns="http://www.w3.org/2000/svg" viewBox="0 0 118 31">
  <path fill="#8d8a94" d="M66.95 10.35c0-3.4 0-6.6.2-9.6l-9.1 1.7v.8h.9c.7.2 1.1.4 1.3.8.2.4.4 1 .5 1.9.1 1.7.2 5.6.2 11.8 0 6.1 0 10-.2 11.4 3.3.7 5.8 1 7.7 1 3.6 0 6.3-1 8.4-3.1 2-2 3.1-4.9 3.1-8.4s-.8-5.1-2.3-6.9-3.5-2.7-5.8-2.7-3.1.4-4.9 1.2v.1Zm.1 18.2c-.1-1.9-.2-7.6-.2-16.9.5-.2 1.2-.3 2.1-.3 1.4 0 2.5.7 3.4 2.2.8 1.5 1.2 3.3 1.2 5.5s-.5 5-1.4 6.9c-.9 1.8-2.1 2.8-3.6 2.8-.5-.1-.9-.2-1.5-.2Zm-43-27.2H.35v1.2h1.2c.9.3 1.6.7 2 1.2.4.6.7 1.5.7 2.8.5 6.4.5 12.4 0 17.9-.1 1.3-.4 2.3-.7 2.8-.4.6-1.1.9-2 1.1l-1.2.2v1.2h15.3v-1.2h-1.6c-.9-.2-1.6-.7-2-1.2-.4-.6-.7-1.5-.7-2.8-.2-2.4-.3-5.1-.3-8.1h3.2c1.7.1 2.9 1.4 3.5 4h1.2v-9.7h-1.2c-.6 2.5-1.7 3.9-3.5 3.9h-3.2c0-5.3.1-9.1.3-11.4h4.7c3.3 0 5.6 2.1 6.9 6.4l1.4-.4-.2-7.9h-.1Zm-2.8 18.2c0 3.1.9 5.6 2.6 7.6s4.3 3 7.5 3 5.8-1 7.7-3.1c1.9-2 2.8-4.6 2.8-7.6s-.9-5.6-2.6-7.6-4.3-3-7.5-3-5.8 1-7.7 3.1c-1.9 2-2.8 4.6-2.8 7.6Zm13.2-6.7c.7 1.7 1 4 1 6.7 0 6.3-1.3 9.4-3.9 9.4s-2.3-.9-3-2.7-1-4-1-6.7c0-6.2 1.3-9.3 3.9-9.3 1.3 0 2.3.8 3 2.6Zm50.1 14.4c2 2 4.4 3 7.4 3s3.4-.4 4.9-1.1c1.4-.7 2.5-1.6 3.3-2.7l-.6-.7c-1.3 1-2.8 1.5-4.5 1.5s-4.2-.8-5.5-2.4-1.9-3.6-1.8-6.2h12.7c0-2.8-.7-5.2-2.2-7s-3.6-2.7-6.2-2.7-5.9 1.1-7.7 3.1c-1.8 2.1-2.7 4.6-2.7 7.6s.9 5.6 2.9 7.5v.1Zm4.4-14.9c.7-1.4 1.5-2.1 2.6-2.1 1.8 0 2.7 2.3 2.7 6.8h-6.3c0-1.7.4-3.3 1-4.7Zm27.5-2.4c-1.6-.7-3.6-1.1-6-1.1s-4.4.7-5.9 1.9-2.3 2.8-2.3 4.6.5 2.8 1.4 3.7c.9.9 2.3 1.7 4.1 2.3 1.7.6 2.8 1.2 3.4 1.7.6.6.9 1.2.9 2.1s-.3 1.6-.9 2.2c-.6.7-1.4.9-2.5.9-2.6 0-4.6-1.9-5.9-5.7l-1 .3.2 5.9c2.1.8 4.5 1.2 7.1 1.2s4.8-.6 6.3-1.8c1.5-1.2 2.3-2.9 2.3-5s-.4-2.6-1.1-3.5c-.8-.9-2-1.7-3.8-2.4-2-.7-3.3-1.4-4-2s-1.1-1.3-1.1-2.2.2-1.6.8-2.2c.5-.6 1.2-.8 2-.8 2.4 0 4.1 1.7 5.2 5.1l1-.3-.2-5.1v.2Zm-57-.5c-.8-.4-1.7-.6-2.7-.6s-2 .4-3.1 1.2-2 2-2.6 3.5v-4.7l-8.9 1.8v.8h.9c1.1.2 1.8 1.1 1.9 2.7.4 3.7.4 7.6 0 11.7-.1 1.6-.8 2.4-1.9 2.6h-.9v1.2h12.6v-1.1h-1.6c-1.1-.2-1.8-1.1-1.9-2.7-.4-3.4-.4-7.1-.1-10.9.4-.6 1.1-.9 2.3-1.1 1.2-.1 2.5.2 4 1.1l2.2-5.5h-.2Z"/>
</svg>