<?xml version="1.0" encoding="UTF-8"?>
<svg xmlns="http://www.w3.org/2000/svg" viewBox="0 0 138 31">
  <g fill="#8d8a94" fill-rule="evenodd">
    <path d="M100.189 22.252c-.3 3-1.1 2.9-2.1 3.1-.9.2-.5.7 0 .6.2 0 1.8-.2 2.8-.2s2.8.1 3.6.1.7-.4 0-.6c-.8-.2-2.9 0-3.1-3.6-.1-2.6 0-11.5 0-11.5 0-.6 0-.7.2-.7s.4.4.6.6l12.9 15.8c1.4 1.5 1.5 1.1 1.4-.5v-18.7c0-2.7 2.6-1.6 2.6-2.4s-.1-.3-.3-.3c-.7 0-2.8.2-3.8.2s-1.5-.1-2.4-.1-.3 0-.3.3c0 .9 3.3-.6 3.2 3.9v12.9c0 .2 0 .7-.4 0l-13.5-16.4c-.2-.2-.5-.7-.8-.7s-2 .1-2.4.1-.9-.1-1.4-.1-.5.1-.5.3c.2 1.1 3.7-.2 3.8 4.9v12.8l-.1.2ZM121.289 1.652c-.4.1-1.1.6-1.3.8-.3.2-.3.5-.1.8.8 1.4 1.5 3.7-.4 6.5-.3.5-.8.6-.5.8s1.1-.4 1.5-.7c2-1.9 2.8-5.2 1.6-7.6-.2-.5-.3-.8-.7-.7l-.1.1ZM123.889 24.352c.1.6 2.8 1.6 5.1 1.6 7.2 0 8.9-3.8 8.9-6.4 0-8.2-12.2-5.2-12.2-11s2.3-4.1 4.8-4.1 5 1.7 5.8 3.8c.1.3.2.9.6.9s.2-.2.2-.5l-.5-4.3c0-.3-.2-.4-.4-.4-.3 0-.5.6-1.1.4-.4 0-1.2-.9-4.5-1-3.6 0-6.7 2.1-6.7 6.1 0 7.8 11.8 4.8 11.9 10.5 0 3.2-2.1 4.9-5.1 4.9-4.4 0-6.3-3.2-6.7-4.7-.2-.6-.2-1-.6-.9-.3 0-.3.4-.2 1 0 0 .4 1.3.5 3.9l.2.2Z"/>
    <path d="M85.789 26.652c7.2 0 12.2-4.6 12.2-11.7s-5.1-11.2-11.6-11.2-11.8 4.8-11.8 11.4 4.3 11.6 11.3 11.6l-.1-.1Zm-.2-21.7c6.3 0 10.1 5.4 10.1 11.2s-4 9.4-8.7 9.4-10.1-5.5-10.1-11.4 3.3-9.2 8.7-9.2Z"/>
    <path d="M66.689 14.752c2-.9 4-2.8 4-5.3 0-6-6.7-5.7-7.2-5.7-1.5 0-3.5.3-5.2.3s-2.1-.2-2.6-.2-.6.2-.6.4c0 1.1 3.4-.5 3.3 2.8v15.8c0 2.4-1.7 2.2-2.1 2.4-.2.1-.3.5-.1.5 1.1 0 2.4-.1 3.5-.1 2.4 0 3.9.1 4.2.2.4.1.6-.4.1-.6-.6-.2-3.2.1-3.3-2.4v-6.6c0-.3-.2-.9.8-.9 2.9 0 2.9-.3 3.4.5 0 0 5.6 6.6 8.7 9.4 2.7 2.4 6 4.1 8.1 4.2 2.9.1 4.4-.3 4.4-.7 0-.7-2.5 1.4-9.3-3.9-4.1-3.2-9.2-9.1-10-10.1v-.2l-.1.2Zm-6.1-8.7c0-1.2.7-1.1 1.7-1.1 2.9 0 5.7 1.4 5.7 5.2s-3.1 4.4-4.3 4.4-3.2.2-3.2-.4v-8.1h.1Z"/>
    <path d="M47.789 14.752c2.1-.9 4.3-2.9 4.3-5.3 0-6-7.2-5.6-7.7-5.6-1.6 0-3.3.3-5 .3s-2-.2-2.5-.2-.6.2-.6.4c0 .9 3.3-.5 3.2 2.8v15.8c0 2.4-1.8 2.4-2.4 2.4s.3.7.5.7c1.1 0 2-.3 3.2-.3 2.5 0 4.1.2 4.4.3.7.1.8-.4.2-.5-1.1-.2-3.5-.2-3.5-2.8v-6.3c0-.3-.2-.9.8-.9 3.3 0 3.1-.2 4.2 1.6l3.7 5.5c1.1 1.8 2.3 3.4 4.5 3.4s2.3 0 2.3-.3c0-.4.4-.6-.5-.4-.7.1-2.1-.4-3.5-2.6l-5.4-7.7v-.2l-.2-.1Zm-6-8.7c0-1.2.6-1.1 1.7-1.2 3.1-.1 5.9 1.3 5.9 5.1s-2.8 4.5-4.1 4.5-3.5.2-3.5-.4v-8Z"/>
    <path d="M31.989 21.052c.3.9.6 1.9.8 2.5.6 1.4-.9 1.9-1.5 1.9-.5 0-.4.8.5.6.8-.1 1.8-.2 2.6-.2 1.2 0 2.3.2 3.5.2s.8-.5.3-.6c-.4 0-1.5 0-2.2-1.3-.7-1.1-1.1-2.4-1.6-3.6l-6.5-16.5c0-.3-.3-1.2-.6-1.2s-.5.5-2.2 4.5l-7.1 16.3c-.8 1.8-2.4 1.2-2.4 1.9s.3.4.5.4c.8 0 1.7-.2 2.5-.2s1.7 0 2.8.2c.7.1.9-.5.3-.6-.8-.2-2.1-.6-1.9-1.9.2-1.9 2-5.2 2-5.2.3-.7 1-.9 1.6-.9h6.6c.8 0 1 .3 1.3 1l1 2.6-.3.1Zm-5.7-13.6c.2-.4.3-.4.5 0l3.1 8.1c.1.4.2.6-.5.6h-6.2c-.4 0-.6-.1-.4-.6l3.5-8.2v.1Z"/>
    <path d="M2.989 22.452c0 2.4-1.1 2.7-1.4 2.8-.6.2-1.2 0-1.1.6 0 .3.8.2.9.2h3.8c1.4 0 3.7.3 4.9.3 6.1 0 7.5-4.5 7.5-6.8 0-4.4-5-5.1-5-5.5s3.1-1.4 3.1-4.6-1.5-5.3-7.1-5.3-3 .2-4.3.2-3-.3-3.7-.3-.6.4.1.7c.6.2 2.2.1 2.2 2.5v15.3l.1-.1Zm2.3-7.2c0-.3-.2-.7 2.3-.7 7.3 0 7.4 4.1 7.4 6.1s-.6 4.7-5.5 4.8c-4.5 0-4.2-.8-4.2-3.1v-7.1Zm0-7.8c0-1.8-.2-2.3 1.8-2.3 3.8 0 6.5 2 6.4 5.3 0 1.8-1.3 3.4-5.4 3.3-2.8 0-2.8-.2-2.8-1.2v-5.1Z"/>
  </g>
</svg>