<?xml version="1.0" encoding="UTF-8"?>
<svg xmlns="http://www.w3.org/2000/svg" viewBox="0 0 102 31">
  <g fill="#8d8a94">
    <path d="M53.85 3.5v24h-6v-24h6ZM68.65 2.7c7.1 0 12.9 5.5 12.9 12.7s-5.8 12.9-13 12.9-13-5.6-13-12.8 5.9-12.8 13-12.8h.1Zm0 19.7c3.8 0 6.6-3.3 6.6-7s-2.8-6.9-6.6-6.9-6.6 3.2-6.6 6.9 2.8 7 6.6 7ZM82.25 20.2l5.5-1.3c.4 2.9 2.5 3.9 4.7 3.9s3-1.3 3-2.3-.5-1.6-2.1-1.9l-3.3-.6c-4-.8-6.8-3.3-6.8-7.1s4.2-7.9 8.9-7.9 8.6 3.8 9 7l-5.4 1.5c-.3-2-1.5-3.4-3.7-3.4s-2.8 1.3-2.8 2.2.4 1.7 1.8 2l3.5.7c4.6.9 7 3.7 7 7.3s-3.4 7.7-9.2 7.7c-6.1 0-9.3-3.2-10.1-7.8ZM6.95 27.5H.45l10.6-24h6.4l-10.5 24Z"/>
    <path d="m38.45 15.2 8-11.7h-7.3l-4.3 7.1-4.2-7.1h-7.4l8.1 11.8-5.2 7.6-8.6-19.4h-6.4l10.6 24h8.1l5-7.6 5 7.6h6.6l-7.9-12.3h-.1Z"/>
  </g>
</svg>