<?xml version="1.0" encoding="UTF-8"?>
<svg xmlns="http://www.w3.org/2000/svg" viewBox="0 0 179 31">
  <g fill="#8d8a94">
    <path d="m43.361 13.35-.3 1.5c-.4-.8-1.5-2-3.8-2-3.8 0-7.8 3-8.6 7.7-.7 4.1 1.2 7.7 5.8 7.7s3.6-.6 4.6-2.1l-.3 1.5h4.3l2.7-14.4h-4.2l-.2.1Zm-1.3 7.2c-.3 1.4-1.6 3.7-4.3 3.7s-3.2-2.3-2.9-3.6c.3-1.6 1.8-3.7 4.3-3.7 2.4 0 3.3 1.9 2.9 3.6ZM50.061 13.35h4l-.3 1.5c.5-.7 1.5-2 4-2l-.8 4.4c-2 0-3.5.4-3.9 2.6l-1.5 7.9h-4.3l2.7-14.4h.1ZM60.761 7.75h4.3l-2 10.8 5-5.2h5.1l-6.6 6.3 3.8 8.1h-4.9l-2.8-6.9-1.3 6.9h-4.3l3.7-20Z"/>
    <path d="M80.061 12.85c-4.4 0-8.2 3.7-9 7.7-.8 4.3 2.1 7.6 6.2 7.6s3-.4 4.3-1.3c1.4-.8 2.6-2.1 3.6-3.7h-4.4c-.7.7-1.5 1.3-2.9 1.3s-2.9-1-2.8-2.7h10.8c.1-.3.2-.6.3-1.1.8-4.4-1.7-7.9-6.1-7.9v.1Zm-4.4 6.1c.3-.8 1.5-2.5 3.7-2.5s2.8 1.6 2.8 2.5h-6.5ZM24.861 7.75l-7.6 11.4V7.75h-3.7l-13.5 20h5.2l7.5-11.4v11.4h3.7l7.5-11.4v11.4h4.3v-20h-3.7.3ZM97.061 13.35h-2.7l.8-4.3h-3.8l-.3 1.6c-.3 1.9-1.5 2.4-3.1 2.6l-.6 3.3h2.1l-2.1 11.1h4.3l2.1-11.1h2.7l.6-3.3v.1Z"/>
  </g>
  <path fill="#8d8a94" fill-opacity=".5" d="M163.561 22.25c-1.4 3.3-4.8 5.9-8.6 5.9s-7.1-3.4-6.3-7.7c.8-4.2 4.7-7.6 9-7.6s6.4 2.5 6.5 6.1h-4.4c-.3-1-.9-2-2.7-2-2-.1-3.7 1.6-4.1 3.6-.4 2.1.7 3.7 2.7 3.7s2.8-1 3.5-1.9h4.4v-.1Zm-35.6-19.6-8.4 5.1h2.4l-7.6 11.4V7.75h-3.7l-7.6 11.4V7.75h-4.3v20h3.7l7.6-11.4v11.4h3.7l13.4-20h2.1l-1.3-5.1Zm8.1 25.1h-4.3l.3-1.5c-1 1.4-2.9 2.1-4.6 2.1-4.6 0-6.5-3.6-5.8-7.7.8-4.7 4.8-7.7 8.6-7.7s3.5 1.2 3.8 2l.3-1.5h4.3l-2.7 14.4.1-.1Zm-7.2-3.5c2.7 0 4-2.3 4.3-3.7.3-1.7-.5-3.6-2.9-3.6s-3.9 2.1-4.3 3.7c-.2 1.3.3 3.6 2.9 3.6Zm20.6-10.9h-2.7l.8-4.3h-3.8l-.3 1.6c-.3 1.9-1.5 2.4-3.1 2.6l-.6 3.3h2.1l-2.1 11.1h4.3l2.1-11.1h2.7l.6-3.3v.1Zm18.1-5.6h4.3l-1.3 7.1c.9-1.3 2.2-2 4.1-2s2.9.5 3.6 1.6c.9 1.4.8 2.7.3 5.2l-1.5 8h-4.3l1.4-7.8c.1-.7.5-3-1.7-3s-2.8 2.2-3 2.9l-1.5 8h-4.3l3.7-20h.2Z"/>
</svg>