<?xml version="1.0" encoding="UTF-8"?>
<svg xmlns="http://www.w3.org/2000/svg" viewBox="0 0 199 31">
  <defs>
    <mask id="a" width="198.6" height="31" x=".2" y="-.05" maskUnits="userSpaceOnUse">
      <path fill="#8d8a94" d="M.2-.05h198.5v30.9H.2V-.05Z"/>
    </mask>
  </defs>
  <g mask="url(#a)">
    <path fill="#8d8a94" fill-rule="evenodd" d="M17 5.15h.3V.75H.2v.3c2 1.6 2.2 2.1 2.2 3.8v21.3c0 1.7-.3 2.2-2.2 3.8v.3h8.9v-.3c-2-1.5-2.3-2.1-2.3-3.7v-10.5h1.9c2.5 0 3 .2 5.1 2.9h.3v-6.9h-.3c-2.1 2.7-2.6 2.9-5.1 2.9H6.8V1.85h2.9c1.2 0 2.2.4 7.3 3.3Zm6.7 12.5h-5.9l2.8-8.6c.1.3.3.6.4 1.1l2.7 7.5Zm4.7 2.5-5.1-14.1h-4.6v.3c.7.6 1.1 1.1 1.4 1.6l-3.8 11.7c-.7 2.1-1.1 2.8-2.9 4.4v.3h5.4v-.3c-1.5-.9-2-1.5-2-2.4s.1-1 .4-1.9l.3-1h6.6l.6 1.7c.4 1.1.4 1.5.4 1.9 0 .6-.4 1.1-1.5 1.8v.3h7.5v-.3c-1.8-1.5-2-1.9-2.7-3.8v-.2Zm11.3-15h.3V.85c-1.6-.3-3.5-.5-5.2-.5-4.9 0-7.4 3.3-7.4 6.8s2.6 6.5 6 9.3c3.6 3 5.8 4.9 5.8 8.4s-1.9 4.7-4.5 4.7-4-.9-8.7-4.6h-.4l1.7 4.8c2.1.6 4.2.9 6.3.9 5.6 0 8.9-3.4 8.9-8.2s-2.6-6.6-6.2-9.6c-3.3-2.7-5.6-4.9-5.6-8s1.4-3.4 3.4-3.4 2.5.6 5.5 3.7h.1Zm21.6 0h.3V.75H41.5v4.4h.3c4.7-3 5.7-3.4 6.8-3.4h.8v24.5c0 1.7-.3 2.2-2.3 3.7v.3H56v-.3c-2-1.5-2.3-2.1-2.3-3.7V1.75h.8c1.1 0 2.1.4 6.8 3.4Zm25.7-.8h.3V.55c-2-.3-4.5-.5-6.9-.5-10.5 0-16.6 5.8-16.6 15.5s5.9 15.4 16.3 15.4 5.1-.4 7-.9l.8-4.2h-.3c-3.9 3.3-5.6 4-8.4 4-7.7 0-10.3-5.8-10.3-14.5s2.6-14.1 9.9-14.1 4 .5 8.3 3.1H87Zm-1 11c0 4.9-.4 8.1-3.9 8.1s-3.9-3.2-3.9-8.1.4-8.1 3.9-8.1 3.9 3.2 3.9 8.1Zm4.2 0c0-5.1-3-9-8.1-9s-8.1 3.9-8.1 9 3 9 8.1 9 8.1-3.9 8.1-9Zm18 14.8h8.8v-.2c-2-1.6-2.2-2.1-2.2-3.8V4.85c0-1.7.3-2.2 2.2-3.8v-.3h-6.2l-6.9 21.7-7-21.7h-6.3v.3c1.2 1 1.9 1.7 2.4 2.4v20.6c0 2.4-.3 3.3-2.5 5.9v.3h7v-.3c-3-2.4-3.4-3.4-3.4-5.9V5.65c0 .1 0 .3.1.4l7.9 24.4h.3l7.9-25.1v20.7c0 1.7-.3 2.2-2.2 3.8v.3h.1Zm25.4-20.4c0 5.5-1.3 7.8-5.5 7.8h-2.4V1.85h1.7c4.7 0 6.2 2 6.2 7.9Zm4.5-.2c0-6.6-4.6-8.8-10.9-8.8h-8.1v.3c2 1.6 2.2 2.1 2.2 3.8v21.3c0 1.7-.3 2.2-2.2 3.8v.3h8.8v-.3c-2-1.5-2.3-2.1-2.3-3.7v-7.5h2.3c5.6 0 10.2-2.4 10.2-9.1v-.1Zm10.8 9.9h-8.4l4.1-14.9c0 .3.2.5.3.8l4 14v.1Zm49.9-18.4v-.3h-6.7v.3c1.8 1.6 2.3 2.4 2.3 3.5s-.1 1.1-.6 2.2l-3.8 8.9-5-11.1c-.4-.9-.5-1.3-.5-1.8 0-.8.4-1.2 1.6-1.8v-.3h-14.8v.3c3.3 2.4 3.7 3.4 3.7 6.1v17L162.8.75h-6.1v.3c1.3 1.1 2 1.8 2.7 2.6v20.5c0 2.2-.2 3.2-2 5.8-1.4-1.7-1.7-2.5-2.3-4.9l-7-24.3h-6v.3c.9.8 1.5 1.4 2 2.1l-5.8 20.8c-.8 3-1.5 3.9-3.7 6v.3h7.1v-.3c-2-1.5-2.7-2.3-2.7-3.7s.1-1.3.4-2.3l.9-3.3h9l1.2 4.4c.4 1.4.5 2 .5 2.5s-.3 1.3-1.8 2.5v.3h14.9v-.3c-3.3-2.4-3.7-3.4-3.7-5.8V5.45v.1l13 24.6h2.7v-23c0-2.4.2-3.4 1.9-6.1 1.1 1.3 1.8 2.5 2.7 4.5l5.3 11.7v8.9c0 1.7-.3 2.2-2.3 3.7v.3h9v-.3c-2-1.5-2.3-2.1-2.3-3.7v-9l4.4-10.3c.9-2.2 1.6-3.2 3.9-5.8h.1Z"/>
  </g>
</svg>